<?xml version="1.0" standalone="no"?>
<!DOCTYPE svg PUBLIC "-//W3C//DTD SVG 20010904//EN"
 "http://www.w3.org/TR/2001/REC-SVG-20010904/DTD/svg10.dtd">
<svg version="1.0" xmlns="http://www.w3.org/2000/svg"
 width="128.000000pt" height="147.000000pt" viewBox="0 0 128.000000 147.000000"
 preserveAspectRatio="xMidYMid meet">
<metadata>
Created by potrace 1.10, written by Peter Selinger 2001-2011
</metadata>
<g transform="translate(0.000000,147.000000) scale(0.100000,-0.100000)"
fill="#ff7546" stroke="none">
<path d="M634 1458 c-4 -6 -5 -71 -3 -145 l4 -135 -70 -3 c-215 -9 -401 -129
-499 -322 -30 -60 -56 -153 -56 -198 l1 -30 14 25 c8 14 15 34 15 45 0 11 7
40 16 65 76 218 273 373 494 388 109 7 110 9 110 159 0 91 3 123 13 124 70 6
228 -40 321 -94 43 -24 50 -35 37 -55 -7 -11 -19 -8 -62 14 -70 35 -178 74
-206 74 -37 0 -53 -36 -53 -118 0 -40 5 -82 11 -93 6 -11 39 -33 75 -49 66
-30 70 -35 55 -59 -8 -12 -16 -12 -56 3 -44 17 -47 17 -65 1 -18 -16 -19 -37
-22 -267 l-3 -250 -33 -29 c-26 -23 -41 -29 -80 -29 -54 0 -85 18 -107 60 -20
40 -19 79 5 118 22 36 54 52 106 52 46 0 41 24 -5 28 -129 13 -200 -158 -104
-250 53 -50 150 -53 201 -5 50 47 53 60 52 318 -1 133 1 243 4 246 2 3 27 -7
55 -23 28 -15 52 -25 54 -23 2 2 15 21 31 42 27 37 27 39 10 52 -17 13 -88 43
-136 58 -14 5 -17 22 -20 97 -2 51 0 94 3 96 9 5 150 -41 192 -62 18 -9 46
-27 63 -40 l31 -23 32 46 c26 36 30 48 19 55 -37 26 -219 107 -263 117 -86 19
-175 28 -181 19z"/>
<path d="M455 1081 c-83 -23 -173 -80 -237 -149 -249 -271 -145 -686 207 -822
86 -34 244 -34 330 0 318 123 444 491 259 760 -35 51 -42 74 -23 85 30 19 117
-125 143 -238 59 -253 -66 -516 -297 -626 -45 -21 -107 -45 -137 -51 -79 -18
-90 -23 -57 -28 124 -17 349 117 443 265 40 61 84 187 84 237 0 19 5 47 12 61
9 19 9 28 0 37 -7 7 -12 29 -12 51 0 84 -67 232 -147 326 l-29 34 -27 -46
c-32 -55 -33 -59 -7 -82 11 -10 34 -41 49 -69 131 -231 45 -531 -188 -654
-202 -107 -426 -71 -579 93 -168 179 -176 441 -21 635 76 94 230 169 349 170
l66 0 -4 -125 c-5 -132 3 -219 19 -210 5 4 9 79 9 169 0 145 -2 165 -18 179
-24 22 -107 21 -187 -2z"/>
<path d="M10 525 c0 -17 7 -57 15 -90 55 -211 262 -397 470 -421 38 -5 55 -3
55 5 0 6 -11 11 -24 11 -39 0 -163 46 -223 82 -75 45 -156 128 -197 202 -38
67 -65 139 -66 171 0 11 -7 31 -15 45 l-14 25 -1 -30z"/>
</g>
</svg>
